<?xml version="1.0" encoding="UTF-8" standalone="no"?>
<!-- Created with Inkscape (http://www.inkscape.org/) -->

<svg
   width="49.501873mm"
   height="91.139534mm"
   viewBox="0 0 187.0937 344.46439"
   version="1.1"
   id="svg1"
   inkscape:version="1.3.2 (091e20e, 2023-11-25, custom)"
   sodipodi:docname="firstAttempt.svg"
   inkscape:export-filename="firstAttempt.svg"
   inkscape:export-xdpi="98.179131"
   inkscape:export-ydpi="98.179131"
   xml:space="preserve"
   xmlns:inkscape="http://www.inkscape.org/namespaces/inkscape"
   xmlns:sodipodi="http://sodipodi.sourceforge.net/DTD/sodipodi-0.dtd"
   xmlns:xlink="http://www.w3.org/1999/xlink"
   xmlns="http://www.w3.org/2000/svg"
   xmlns:svg="http://www.w3.org/2000/svg"><sodipodi:namedview
     id="namedview1"
     pagecolor="#ffffff"
     bordercolor="#000000"
     borderopacity="0.25"
     inkscape:showpageshadow="2"
     inkscape:pageopacity="0.0"
     inkscape:pagecheckerboard="0"
     inkscape:deskcolor="#d1d1d1"
     inkscape:document-units="mm"
     inkscape:zoom="1.709242"
     inkscape:cx="644.73022"
     inkscape:cy="312.71171"
     inkscape:window-width="1920"
     inkscape:window-height="1027"
     inkscape:window-x="-8"
     inkscape:window-y="-8"
     inkscape:window-maximized="1"
     showguides="false"
     inkscape:current-layer="layer1"><sodipodi:guide
       position="-166.02634,622.31201"
       orientation="0,-1"
       id="guide20"
       inkscape:locked="false" /></sodipodi:namedview><defs
     id="defs1"><linearGradient
       id="linearGradient481"
       inkscape:collect="always"><stop
         style="stop-color:#ff0000;stop-opacity:1;"
         offset="0"
         id="stop482" /><stop
         style="stop-color:#ffd300;stop-opacity:1;"
         offset="1"
         id="stop483" /></linearGradient><linearGradient
       inkscape:collect="always"
       xlink:href="#linearGradient481"
       id="linearGradient498"
       x1="643.58978"
       y1="295.79633"
       x2="643.23633"
       y2="446.36923"
       gradientUnits="userSpaceOnUse" /><linearGradient
       inkscape:collect="always"
       xlink:href="#linearGradient481"
       id="linearGradient2"
       gradientUnits="userSpaceOnUse"
       x1="643.58978"
       y1="295.79633"
       x2="643.23633"
       y2="446.36923" /></defs><g
     id="g2"
     transform="translate(-552.02636,-153.61122)"><g
       id="g6"
       transform="matrix(0.4957594,0,0,0.4957594,193.89277,194.50626)"
       style="stroke:none;stroke-opacity:1"><path
         id="rect2"
         style="fill:none;stroke:none;stroke-width:3.77953;stroke-opacity:1"
         d="m 884.71588,41.640183 c -83.26526,11.62725 -149.1496,77.511587 -160.77685,160.776847 -2.01928,14.46051 -1.96326,38.26032 -0.38924,52.78103 5.19621,47.93629 24.6422,91.46145 60.94594,121.45603 11.25231,9.29678 25.32435,26.36375 29.7957,40.27537 l 23.8078,74.07274 a 36.295396,36.295396 36.091007 0 0 34.55443,25.18922 h 76.05991 a 36.334943,36.334943 143.93869 0 0 34.58053,-25.18081 l 23.7556,-73.64815 c 4.4858,-13.90698 18.5975,-30.91846 29.8991,-40.15542 36.7042,-29.99901 56.4199,-73.76265 61.6712,-122.00948 1.5805,-14.51998 1.638,-38.32002 -0.3812,-52.78053 -11.6272,-83.26455 -77.5105,-149.148563 -160.77496,-160.776574 -14.46048,-2.01943 -38.28745,-2.019553 -52.74796,-2.73e-4 z"
         sodipodi:nodetypes="cccccccc" /><path
         id="rect1"
         style="fill:#4d4d4d;stroke:none;stroke-width:4.06704;stroke-opacity:1"
         d="m 867.9823,527.12697 c -3.46201,0 -6.25,2.78798 -6.25,6.25 0,3.46201 2.78799,6.24804 6.25,6.24804 h 85.75001 c 3.46201,0 6.25,-2.78603 6.25,-6.24804 0,-3.46202 -2.78799,-6.25 -6.25,-6.25 z m 0,18 c -3.46201,0 -6.25,2.78798 -6.25,6.25 0,3.46201 2.78799,6.24804 6.25,6.24804 h 85.75001 c 3.46201,0 6.25,-2.78603 6.25,-6.24804 0,-3.46202 -2.78799,-6.25 -6.25,-6.25 z m 0,18 c -3.46201,0 -6.25,2.78798 -6.25,6.25 0,3.46201 2.78799,6.24804 6.25,6.24804 h 85.75001 c 3.46201,0 6.25,-2.78603 6.25,-6.24804 0,-3.46202 -2.78799,-6.25 -6.25,-6.25 z m 5.67774,18.35351 c 3.55461,17.64292 19.076,30.85157 37.79687,30.85157 18.72089,0 34.23837,-13.20865 37.79297,-30.85157 z" /></g><g
       id="g498"
       style="fill:url(#linearGradient498);fill-opacity:1;stroke:none;stroke-opacity:1"><path
         style="mix-blend-mode:normal;fill:url(#linearGradient2);fill-opacity:1;stroke:none;stroke-width:0;stroke-dasharray:none;stroke-opacity:1;paint-order:markers stroke fill"
         d="m 620.48881,447.92247 c -3.19318,-1.22782 -7.13608,-4.6198 -8.55124,-7.35642 -0.46914,-0.90722 -3.73557,-10.57914 -7.25873,-21.49316 -3.52316,-10.91403 -7.05593,-21.12673 -7.85058,-22.69491 -2.44916,-4.83318 -6.62483,-9.85625 -13.61329,-16.3759 -13.57802,-12.66716 -21.03652,-24.55528 -25.77908,-41.08929 -3.14902,-10.97845 -3.75053,-15.77109 -3.77453,-30.07399 -0.0246,-14.66893 0.53093,-18.67804 4.10176,-29.6008 4.46499,-13.65794 12.0494,-25.8685 22.65588,-36.47499 13.1399,-13.13989 28.1116,-21.30263 46.66614,-25.44289 4.94279,-1.10293 7.48593,-1.2789 18.5364,-1.28263 11.98871,-0.004 13.25147,0.0998 19.74894,1.62358 36.32051,8.51803 63.03012,35.71078 70.88905,72.17133 1.08753,5.04544 1.27604,7.77697 1.29165,18.71531 0.0156,10.9173 -0.17644,13.83874 -1.30093,19.79363 -3.6587,19.37526 -11.96224,35.63375 -24.21795,47.41929 -10.3276,9.93138 -13.21999,13.05712 -16.00078,17.29166 -2.91341,4.43648 -3.48735,5.97528 -11.37505,30.49837 -3.00569,9.34478 -5.65906,16.53878 -6.7129,18.20052 -1.84921,2.9159 -5.86553,5.85545 -9.3064,6.81137 -1.18482,0.32915 -11.19486,0.56015 -23.5978,0.54455 -20.06319,-0.0252 -21.74653,-0.10646 -24.55056,-1.18463 z"
         id="path533" /></g><g
       style="fill:#ff0000;fill-opacity:1;fill-rule:nonzero"
       id="g449"
       transform="matrix(0.32951402,0,0,0.2213292,550.1142,153.61137)"><g
         id="g1"
         style="fill:#ff0000;fill-opacity:1;fill-rule:nonzero">
	<path
   d="m 216.02,611.195 c 5.978,3.178 12.284,-3.704 8.624,-9.4 -19.866,-30.919 -38.678,-82.947 -8.706,-149.952 49.982,-111.737 80.396,-169.609 80.396,-169.609 0,0 16.177,67.536 60.029,127.585 42.205,57.793 65.306,130.478 28.064,191.029 -3.495,5.683 2.668,12.388 8.607,9.349 46.1,-23.582 97.806,-70.885 103.64,-165.017 2.151,-28.764 -1.075,-69.034 -17.206,-119.851 -20.741,-64.406 -46.239,-94.459 -60.992,-107.365 -4.413,-3.861 -11.276,-0.439 -10.914,5.413 4.299,69.494 -21.845,87.129 -36.726,47.386 -5.943,-15.874 -9.409,-43.33 -9.409,-76.766 0,-55.665 -16.15,-112.967 -51.755,-159.531 -9.259,-12.109 -20.093,-23.424 -32.523,-33.073 -4.5,-3.494 -11.023,0.018 -10.611,5.7 2.734,37.736 0.257,145.885 -94.624,275.089 -86.029,119.851 -52.693,211.896 -40.864,236.826 22.616,47.759 54.162,75.806 84.97,92.187 z"
   id="path1"
   style="fill:#ff0000;fill-opacity:1;fill-rule:nonzero" />
</g></g></g></svg>
